<svg xmlns="http://www.w3.org/2000/svg" width="31" height="31" viewBox="0 0 31 31" fill="none">
  <path d="M1.84158 22.0518C0.184645 18.7989 -0.236515 15.0479 0.657281 11.504C1.55108 7.9601 3.69826 4.86736 6.69518 2.80721C9.69209 0.747073 13.3323 -0.138571 16.9315 0.316784C20.5306 0.772138 23.8408 2.53713 26.2398 5.27993C28.6387 8.02274 29.9612 11.5544 29.9585 15.2111C29.9558 18.8678 28.6282 22.3975 26.2252 25.1367C23.8223 27.876 20.5095 29.636 16.9097 30.086C13.3098 30.536 9.67092 29.6449 6.67703 27.5803L7.56427 26.2729C10.242 28.1195 13.4966 28.9164 16.7163 28.514C19.936 28.1115 22.8989 26.5373 25.0481 24.0874C27.1973 21.6374 28.3847 18.4804 28.3871 15.2099C28.3895 11.9394 27.2067 8.7807 25.0611 6.32754C22.9155 3.87439 19.9549 2.29579 16.7358 1.88853C13.5167 1.48126 10.2609 2.27338 7.5805 4.11596C4.90007 5.95854 2.97964 8.72467 2.18023 11.8943C1.38083 15.064 1.75751 18.4188 3.23947 21.3282L1.84158 22.0518Z" fill="url(#paint0_linear_51_3705)"/>
  <path d="M9.9082 13L14.8682 19L19.8282 13" stroke="url(#paint1_linear_51_3705)" stroke-width="2" stroke-linecap="round" stroke-linejoin="round"/>
  <defs>
    <linearGradient id="paint0_linear_51_3705" x1="14.8787" y1="0.201379" x2="15.2848" y2="30.1986" gradientUnits="userSpaceOnUse">
      <stop stop-color="white"/>
      <stop offset="1" stop-color="#D9D9D9" stop-opacity="0.57"/>
    </linearGradient>
    <linearGradient id="paint1_linear_51_3705" x1="14.8682" y1="13" x2="14.8682" y2="19" gradientUnits="userSpaceOnUse">
      <stop stop-color="#FEFEFE"/>
      <stop offset="1" stop-color="#FBFBFF" stop-opacity="0.54"/>
    </linearGradient>
  </defs>
</svg>