<svg width="37" height="36" viewBox="0 0 37 36" fill="none" xmlns="http://www.w3.org/2000/svg">
<path d="M31.955 28.995C31.955 29.535 31.835 30.09 31.58 30.63C31.325 31.17 30.995 31.68 30.56 32.16C29.825 32.97 29.015 33.555 28.1 33.93C27.2 34.305 26.225 34.5 25.175 34.5C23.645 34.5 22.01 34.14 20.285 33.405C18.56 32.67 16.835 31.68 15.125 30.435C13.4 29.175 11.765 27.78 10.205 26.235C8.66 24.675 7.265 23.04 6.02 21.33C4.79 19.62 3.8 17.91 3.08 16.215C2.36 14.505 2 12.87 2 11.31C2 10.29 2.18 9.315 2.54 8.415C2.9 7.5 3.47 6.66 4.265 5.91C5.225 4.965 6.275 4.5 7.385 4.5C7.805 4.5 8.225 4.59 8.6 4.77C8.99 4.95 9.335 5.22 9.605 5.61L13.085 10.515C13.355 10.89 13.55 11.235 13.685 11.565C13.82 11.88 13.895 12.195 13.895 12.48C13.895 12.84 13.79 13.2 13.58 13.545C13.385 13.89 13.1 14.25 12.74 14.61L11.6 15.795C11.435 15.96 11.36 16.155 11.36 16.395C11.36 16.515 11.375 16.62 11.405 16.74C11.45 16.86 11.495 16.95 11.525 17.04C11.795 17.535 12.26 18.18 12.92 18.96C13.595 19.74 14.315 20.535 15.095 21.33C15.905 22.125 16.685 22.86 17.48 23.535C18.26 24.195 18.905 24.645 19.415 24.915C19.49 24.945 19.58 24.99 19.685 25.035C19.805 25.08 19.925 25.095 20.06 25.095C20.315 25.095 20.51 25.005 20.675 24.84L21.815 23.715C22.19 23.34 22.55 23.055 22.895 22.875C23.24 22.665 23.585 22.56 23.96 22.56C24.245 22.56 24.545 22.62 24.875 22.755C25.205 22.89 25.55 23.085 25.925 23.34L30.89 26.865C31.28 27.135 31.55 27.45 31.715 27.825C31.865 28.2 31.955 28.575 31.955 28.995Z" stroke="white" stroke-width="1.8" stroke-miterlimit="10"/>
<path d="M26.75 15C26.75 14.1 26.045 12.72 24.995 11.595C24.035 10.56 22.76 9.75 21.5 9.75" stroke="white" stroke-width="1.8" stroke-linecap="round" stroke-linejoin="round"/>
<path d="M32 15C32 9.195 27.305 4.5 21.5 4.5" stroke="white" stroke-width="1.8" stroke-linecap="round" stroke-linejoin="round"/>
</svg>
