<svg width="50" height="60" viewBox="0 0 101 101" fill="none" xmlns="http://www.w3.org/2000/svg">
<path d="M100.933 0.891113H51.1412L3.59537 50.8911H50.8454L51.0662 50.6661L100.933 0.891113Z" fill="url(#paint0_linear_25_458)"/>
<path d="M100.933 100.891H0.932861H100.933ZM51.0662 50.6661L50.8454 50.8911H51.2912L51.0662 50.6661Z" fill="url(#paint1_linear_25_458)"/>
<path d="M51.1412 0.891113H0.932861V53.6911V50.8911H3.59536L51.1412 0.891113Z" fill="url(#paint2_linear_25_458)"/>
<path d="M50.8454 50.8911H3.59536L0.932861 53.6911V100.891L50.8454 50.8911Z" fill="url(#paint3_linear_25_458)"/>
<path d="M51.2912 50.8911H50.8454L0.932861 100.891H100.933L51.2912 50.8911Z" fill="url(#paint4_linear_25_458)"/>
<path d="M3.59536 50.8911H0.932861V53.6911L3.59536 50.8911Z" fill="url(#paint5_linear_25_458)"/>
<defs>
<linearGradient id="paint0_linear_25_458" x1="-16.9151" y1="92.2774" x2="76.1402" y2="-0.777868" gradientUnits="userSpaceOnUse">
<stop stop-color="#C757BC"/>
<stop offset="0.108" stop-color="#C757BC"/>
<stop offset="0.173" stop-color="#CD5CA9"/>
<stop offset="0.492" stop-color="#E8744F"/>
<stop offset="0.716" stop-color="#F88316"/>
<stop offset="0.823" stop-color="#FF8900"/>
<stop offset="1" stop-color="#FF8900"/>
</linearGradient>
<linearGradient id="paint1_linear_25_458" x1="33.2368" y1="118.904" x2="78.5935" y2="73.5473" gradientUnits="userSpaceOnUse">
<stop stop-color="#00AFFF"/>
<stop offset="0.296" stop-color="#00AFFF"/>
<stop offset="0.694" stop-color="#5282FF"/>
<stop offset="1" stop-color="#945DFF"/>
</linearGradient>
<linearGradient id="paint2_linear_25_458" x1="-0.121796" y1="28.5273" x2="31.6965" y2="-3.29185" gradientUnits="userSpaceOnUse">
<stop stop-color="#00AFFF"/>
<stop offset="0.296" stop-color="#00AFFF"/>
<stop offset="0.694" stop-color="#5282FF"/>
<stop offset="1" stop-color="#945DFF"/>
</linearGradient>
<linearGradient id="paint3_linear_25_458" x1="-16.3568" y1="92.8357" x2="76.6985" y2="-0.219619" gradientUnits="userSpaceOnUse">
<stop stop-color="#AD4CA4"/>
<stop offset="0.108" stop-color="#AD4CA4"/>
<stop offset="0.173" stop-color="#B25093"/>
<stop offset="0.492" stop-color="#CA6545"/>
<stop offset="0.716" stop-color="#D87213"/>
<stop offset="0.823" stop-color="#DE7700"/>
<stop offset="1" stop-color="#DE7700"/>
</linearGradient>
<linearGradient id="paint4_linear_25_458" x1="33.2368" y1="118.904" x2="78.5935" y2="73.5473" gradientUnits="userSpaceOnUse">
<stop stop-color="#0098DE"/>
<stop offset="0.296" stop-color="#0098DE"/>
<stop offset="0.694" stop-color="#4771DE"/>
<stop offset="1" stop-color="#8151DE"/>
</linearGradient>
<linearGradient id="paint5_linear_25_458" x1="12.3831" y1="41.032" x2="44.2014" y2="9.21279" gradientUnits="userSpaceOnUse">
<stop stop-color="#0098DE"/>
<stop offset="0.296" stop-color="#0098DE"/>
<stop offset="0.694" stop-color="#4771DE"/>
<stop offset="1" stop-color="#8151DE"/>
</linearGradient>
</defs>
</svg>
