<svg width="65" height="65" viewBox="0 0 100 100" fill="none" xmlns="http://www.w3.org/2000/svg">
<path d="M46.7253 0.0269104C46.5103 0.0464578 45.826 0.114874 45.2102 0.163743C31.0068 1.4441 17.7028 9.10671 9.27664 20.8841C4.58456 27.4325 1.58358 34.8605 0.449658 42.7284C0.0488759 45.4748 0 46.286 0 50.0098C0 53.7336 0.0488759 54.5448 0.449658 57.2912C3.16716 76.0666 16.5298 91.8414 34.653 97.6861C37.8983 98.7319 41.3196 99.4453 45.2102 99.8754C46.7253 100.042 53.2747 100.042 54.7898 99.8754C61.5054 99.1326 67.1945 97.471 72.8055 94.6073C73.6657 94.1675 73.8319 94.0502 73.7146 93.9525C73.6364 93.8939 69.9707 88.9777 65.5719 83.0352L57.5758 72.2353L47.5562 57.4085C42.043 49.2572 37.5073 42.5915 37.4682 42.5915C37.4291 42.5817 37.39 49.1692 37.3705 57.213C37.3412 71.297 37.3314 71.8639 37.1554 72.1962C36.9013 72.6751 36.7058 72.8706 36.2952 73.0856C35.9824 73.242 35.7087 73.2713 34.2327 73.2713H32.5415L32.0919 72.9878C31.7986 72.8021 31.5836 72.5578 31.437 72.2744L31.2317 71.8345L31.2512 52.2382L31.2805 32.6321L31.5836 32.2509C31.74 32.0457 32.0723 31.7818 32.3069 31.6547C32.7077 31.4592 32.8641 31.4397 34.5552 31.4397C36.5494 31.4397 36.8817 31.5179 37.3998 32.0848C37.5464 32.2411 42.9717 40.412 49.4624 50.2541C55.9531 60.0963 64.8289 73.5352 69.1887 80.1324L77.1065 92.1248L77.5073 91.8609C81.0557 89.5543 84.8094 86.2703 87.781 82.8495C94.1056 75.5877 98.1818 66.7327 99.5503 57.2912C99.9511 54.5448 100 53.7336 100 50.0098C100 46.286 99.9511 45.4748 99.5503 42.7284C96.8328 23.953 83.4702 8.17821 65.347 2.33351C62.1505 1.2975 58.7488 0.584013 54.9365 0.153969C53.998 0.0562316 47.5367 -0.0512795 46.7253 0.0269104ZM67.1945 30.2668C67.6637 30.5014 68.045 30.951 68.1818 31.4201C68.26 31.6743 68.2796 37.1085 68.26 49.3549L68.2307 66.9281L65.132 62.1781L62.0235 57.4281V44.6538C62.0235 36.395 62.0626 31.7525 62.1212 31.5277C62.2776 30.9803 62.6197 30.5503 63.089 30.2962C63.4897 30.0909 63.6364 30.0714 65.1711 30.0714C66.6178 30.0714 66.8719 30.0909 67.1945 30.2668Z" fill="white"/>
</svg>
