<svg width="66" height="66" viewBox="0 0 512 512" fill="none" xmlns="http://www.w3.org/2000/svg">
<path d="M298.666 362.666C192 362.666 101.348 309.24 101.348 245.24C101.348 181.24 181.334 128 288 128C422.714 128 485.144 179.822 485.144 243.822C485.144 307.822 416.33 362.666 298.666 362.666ZM256 64C117.334 64 0 138.666 0 234.666C0 325.334 116.624 400.604 255.292 400.604C393.958 400.604 512 330.666 512 234.666C512 138.666 394.666 64 256 64Z" fill="url(#paint0_linear_102_1533)"/>
<path d="M211.892 167.658V449.876H297.178V340.126C318.5 340.126 331.2 335.47 345.15 361.03C366.472 397.614 393.124 449.876 393.124 449.876H494.4C494.4 449.876 430.436 345.352 425.106 340.126C415.276 329.672 403.784 329.672 387.794 324.446C419.776 319.22 449.592 305.95 459.958 277.518C469.02 251.388 467.954 218.148 448.53 195.858C431.708 178.22 414.446 167.658 371.802 167.658H211.892ZM297.178 226.434H353.146C366.418 226.434 377.132 239.5 377.132 252.564C377.132 265.63 366.472 278.696 353.146 278.696H297.178V226.434Z" fill="#2165B6"/>
<defs>
<linearGradient id="paint0_linear_102_1533" x1="194.42" y1="121.219" x2="351.824" y2="388.478" gradientUnits="userSpaceOnUse">
<stop stop-color="#C9CBCE"/>
<stop offset="1" stop-color="#7B7A81"/>
</linearGradient>
</defs>
</svg>
