<svg width="48" height="48" viewBox="0 0 48 48" fill="none" xmlns="http://www.w3.org/2000/svg">
<path d="M28.5009 22.7415L20.9726 25.2073L14.4156 28.1028L12.5849 28.5885C12.1179 29.0369 11.6322 29.4852 11.0905 29.9335C10.5114 30.4379 9.96961 30.8863 9.55863 31.2225C9.09162 31.5961 8.41911 32.2686 8.06418 32.6983C7.54111 33.3521 7.13014 34.0433 6.96201 34.5664C6.64444 35.5191 6.79389 36.4905 7.41035 37.3872C8.17626 38.5267 9.72676 39.6849 11.5201 40.4695C12.4355 40.8804 13.986 41.3848 15.1442 41.6837C17.0683 42.1694 20.8044 42.7112 22.8593 42.7859C23.2703 42.8046 23.8307 42.8046 23.8494 42.7859C23.8868 42.7485 24.223 42.1507 24.5779 41.3848C25.8482 38.8069 26.7449 36.3784 27.2493 34.3235C27.5482 33.0719 27.7724 31.4093 27.9405 29.4292C27.9778 28.8687 27.9965 27.0193 27.9592 26.4029C27.9031 25.3754 27.8097 24.5535 27.6789 23.7315C27.6603 23.6195 27.6416 23.5074 27.6603 23.5074C27.6789 23.4887 27.7537 23.47 28.6877 23.2085L28.5009 22.7415ZM26.7823 23.7502C26.857 23.7502 27.0251 25.5062 27.0812 26.6084C27.0998 26.8325 27.0812 27.0007 27.0812 27.0007C27.0438 27.0007 26.1284 26.4589 25.4559 26.0479C24.8955 25.693 23.812 24.9645 23.6439 24.8337C23.5879 24.7963 23.5879 24.7963 24.0549 24.6282C24.8395 24.348 26.7075 23.7502 26.7823 23.7502ZM22.934 25.0205C22.9901 25.0205 23.1208 25.0952 23.4384 25.282C24.6153 26.0106 26.2032 26.9073 26.8944 27.2062C27.0998 27.2996 27.1185 27.2622 26.6515 27.5984C25.6241 28.3083 24.3164 28.9995 22.7472 29.6907C22.467 29.8215 22.2429 29.9149 22.2242 29.9149C22.2055 29.9149 22.2429 29.7654 22.2989 29.5973C22.6725 28.1776 22.8967 26.7391 22.9154 25.5996C22.878 25.0205 22.878 25.0205 22.934 25.0205ZM22.1494 25.3194C22.1868 25.3568 22.1681 26.6271 22.1121 26.982C22.0187 27.8039 21.8506 28.5885 21.589 29.4665C21.533 29.672 21.4769 29.8588 21.4583 29.8588C21.4396 29.8962 20.655 29.1303 20.3935 28.8314C19.9451 28.327 19.6089 27.8039 19.3473 27.2996C19.2166 27.038 19.0111 26.5336 19.0298 26.5336C19.1232 26.4589 22.1308 25.3007 22.1494 25.3194ZM18.432 26.7765C18.4693 26.7952 18.5067 26.8886 18.5254 26.982C18.7122 27.4864 19.1232 28.2149 19.4781 28.6633C19.8704 29.1676 20.3748 29.7281 20.7858 30.083C20.9165 30.1951 21.0473 30.3072 21.066 30.3258C21.1033 30.3632 21.1033 30.3632 20.188 30.6995C19.1045 31.1104 17.9463 31.5214 16.6013 31.9511C16.2837 32.0631 15.9661 32.1565 15.6486 32.2686C15.5925 32.2873 15.6112 32.25 15.7606 32.0258C16.4331 30.9797 17.4419 28.9435 18.0023 27.4864C18.0957 27.2435 18.1891 26.982 18.2078 26.9259C18.2265 26.8512 18.2639 26.8139 18.3386 26.7765C18.3759 26.7952 18.4133 26.7765 18.432 26.7765ZM17.2925 27.2435C17.3111 27.2622 17.0122 27.86 16.732 28.4204C16.1716 29.5039 15.5738 30.55 14.7706 31.839C14.6398 32.0631 14.509 32.2686 14.4903 32.2873C14.453 32.3247 14.453 32.3247 14.3596 32.1379C14.1728 31.7643 14.0046 31.2599 13.9299 30.8115C13.8365 30.3632 13.8552 29.5973 13.9673 29.1116C14.042 28.7567 14.042 28.7567 14.2101 28.6819C14.9013 28.327 17.2551 27.2248 17.2925 27.2435ZM27.0998 27.6545V27.8973C27.0998 29.1676 26.9691 30.9049 26.7636 32.1752C26.7262 32.3994 26.7075 32.5862 26.6889 32.5862C26.6889 32.5862 26.5207 32.5488 26.3339 32.4928C25.4746 32.2313 24.5593 31.839 23.7186 31.372C23.1582 31.0731 22.3549 30.5687 22.3923 30.55C22.3923 30.55 22.6351 30.4192 22.9154 30.2698C24.0362 29.6907 25.101 29.0555 26.035 28.4391C26.39 28.2149 26.913 27.8226 27.0251 27.7292L27.0998 27.6545ZM12.9959 29.3358C13.0146 29.3358 13.0146 29.3731 12.9772 29.5786C12.9585 29.7281 12.9212 30.0083 12.9212 30.1951C12.8838 31.017 13.0146 31.6335 13.4255 32.4741C13.5376 32.6983 13.631 32.9038 13.631 32.9038C13.5937 32.9411 9.82016 34.0433 8.64328 34.3609C8.28834 34.4543 7.98945 34.5477 7.95209 34.5477C7.91473 34.5664 7.91473 34.5477 7.91473 34.4543C8.04549 33.6136 8.68064 32.5302 9.57731 31.5961C10.1751 30.9797 10.6421 30.6247 11.4454 30.1577C12.0245 29.8588 12.9025 29.3544 12.9959 29.3358C12.9772 29.3358 12.9772 29.3358 12.9959 29.3358ZM21.8692 30.9236C21.8692 30.9236 22.0187 30.9983 22.1681 31.0917C23.3824 31.8016 25.0823 32.4554 26.5207 32.7917L26.6515 32.8291L26.4647 32.9225C25.6988 33.3521 23.2143 34.3796 20.6737 35.3323C20.3001 35.463 19.9451 35.6125 19.8704 35.6312C19.7957 35.6685 19.7396 35.6685 19.7396 35.6685C19.7396 35.6685 19.833 35.463 19.9638 35.2202C20.6737 33.8939 21.3835 32.2686 21.7572 31.1478C21.8319 31.017 21.8692 30.9236 21.8692 30.9236ZM20.9726 31.2225C20.9726 31.2225 20.9352 31.3533 20.8792 31.484C20.3748 32.6796 19.7396 33.9873 18.899 35.463C18.6935 35.8367 18.5067 36.1355 18.5067 36.1355C18.5067 36.1355 18.3386 36.0421 18.1331 35.9114C16.9188 35.1641 15.854 34.2675 15.1629 33.3708L15.0695 33.24L15.5925 33.0906C17.4419 32.5862 19.0298 32.0445 20.599 31.372C20.7671 31.2972 20.9539 31.2225 20.9726 31.2225ZM26.5955 33.184C26.5955 33.3148 26.3153 34.4916 26.0724 35.3323C25.8669 36.0421 25.6988 36.6026 25.3812 37.5926C25.2505 38.0223 25.1197 38.3772 25.1197 38.3772C25.1197 38.3772 25.0823 38.3772 25.045 38.3586C23.3637 38.0597 21.8319 37.63 20.4121 37.0509C20.0198 36.8828 19.4407 36.6399 19.4034 36.6026C19.3847 36.5839 19.7396 36.4344 20.1693 36.2476C22.7659 35.1081 25.4373 33.8378 26.3713 33.2774C26.4834 33.2213 26.5768 33.184 26.5955 33.184ZM13.6124 33.6323C13.631 33.651 12.9025 34.6784 11.8937 36.0982C11.5388 36.6026 11.1278 37.1817 10.9784 37.3872C10.8289 37.6113 10.5861 37.9476 10.4553 38.1531L10.2125 38.5267L9.95093 38.3025C9.65204 38.0597 9.12898 37.5179 8.88613 37.219C8.40043 36.6026 8.06417 35.9674 7.93341 35.3883C7.87737 35.1081 7.87737 34.9773 7.93341 34.9587C8.02681 34.94 9.53995 34.585 10.9597 34.2488C11.7443 34.062 12.6596 33.8565 12.9959 33.7631C13.3321 33.6884 13.5937 33.6323 13.6124 33.6323ZM14.3409 33.9125L14.5277 34.118C15.3497 35.0334 16.1903 35.7059 17.1991 36.3037C17.3859 36.3971 17.5166 36.4905 17.4979 36.5092C17.4606 36.5465 13.986 37.7794 12.3607 38.3212C11.4641 38.6388 10.7168 38.9003 10.6982 38.9003L10.5861 38.8256L10.4927 38.7508L10.6608 38.508C11.2025 37.7421 11.875 36.8828 13.3321 35.1268L14.3409 33.9125ZM18.8803 37.163C18.8803 37.163 19.1419 37.2564 19.4407 37.3685C20.188 37.6487 20.7671 37.8168 21.5517 38.0223C22.5231 38.2652 23.9241 38.508 24.7461 38.5827C24.8768 38.6014 24.9329 38.6014 24.9142 38.6201C24.8768 38.6388 24.0362 38.919 23.4197 39.1245C22.4483 39.4234 19.4594 40.32 17.0122 41.0112C16.5639 41.142 16.1716 41.2541 16.1529 41.2541C16.0969 41.2727 15.9101 41.2167 15.9101 41.198C15.9101 41.1793 16.0408 41.0112 16.209 40.8244C17.0309 39.853 17.8342 38.7508 18.5254 37.7234C18.7122 37.3872 18.8803 37.163 18.8803 37.163ZM17.8716 37.1817C17.8716 37.1817 17.4793 37.8355 16.7694 38.9563C16.4705 39.4234 16.1343 39.9651 16.0035 40.1519C15.8914 40.3387 15.7233 40.6189 15.6299 40.787L15.4617 41.0859L15.3683 41.0673C15.1629 41.0112 13.7244 40.5068 13.3508 40.3574C12.8838 40.1706 12.3981 39.9464 12.0245 39.7409C11.5762 39.4981 10.9971 39.1245 11.0531 39.1245C11.0718 39.1245 11.8377 38.9003 12.7904 38.6574C15.2749 37.9849 16.6573 37.5926 17.5727 37.2937C17.7221 37.219 17.8716 37.1817 17.8716 37.1817ZM24.9516 38.8443C24.9889 38.9003 24.0549 41.4596 23.7186 42.2628C23.6439 42.4496 23.6252 42.487 23.5692 42.487C23.4758 42.487 22.1308 42.3002 21.3275 42.1694C19.9078 41.9453 17.5353 41.5343 16.9375 41.4035L16.8068 41.3662L17.6474 41.1793C19.4781 40.7684 20.3374 40.5442 21.2341 40.2827C22.3549 39.9464 23.4571 39.5168 24.5779 38.9937C24.7648 38.919 24.9142 38.8443 24.9516 38.8443Z" fill="url(#paint0_linear_2102_3340)"/>
<path d="M20.7298 5.2003C20.599 5.18162 18.5815 5.91017 17.2738 6.43323C15.5179 7.1431 14.1542 7.83429 13.3135 8.43207C12.996 8.65624 12.6037 9.04854 12.5476 9.19798C12.5289 9.25402 12.5103 9.32875 12.5103 9.38479L13.2762 10.1133L15.0882 10.6924L19.4034 11.4583L24.3352 12.299L24.3912 11.8693H24.3538L23.7 11.7759L23.5693 11.5518C22.8967 10.3749 22.1495 8.89909 21.7199 7.90901C21.3836 7.1431 21.066 6.24642 20.8979 5.61128C20.8045 5.21898 20.7858 5.2003 20.7298 5.2003ZM20.6364 5.48051C20.6551 5.48051 20.6737 5.64864 20.6924 5.83545C20.7858 6.63872 20.9726 7.40463 21.2528 8.22658C21.4583 8.86173 21.4583 8.82437 21.2155 8.74964C20.6364 8.58152 18.0398 8.13318 16.153 7.87165C15.8541 7.83429 15.5926 7.79693 15.5926 7.77825C15.5739 7.75956 16.9563 7.03102 17.5541 6.75081C18.3386 6.39587 20.4869 5.51788 20.6364 5.48051ZM15.1442 8.03977L15.3684 8.1145C16.5827 8.52547 19.6089 9.10458 21.2902 9.23534C21.477 9.25402 21.6451 9.2727 21.6451 9.2727C21.6451 9.2727 21.4957 9.36611 21.2902 9.45951C20.4869 9.87049 19.5903 10.3562 18.9738 10.7485C18.787 10.8606 18.6189 10.954 18.6002 10.954C18.5815 10.954 18.4507 10.9353 18.3386 10.9166L18.1145 10.8792L17.5541 10.3188C16.5453 9.34743 15.7607 8.6002 15.4618 8.30131L15.1442 8.03977ZM14.9201 8.2079L15.7233 9.21666C16.153 9.77708 16.6013 10.3001 16.6947 10.4309C16.7881 10.543 16.8629 10.6551 16.8629 10.6551C16.8442 10.6738 15.7047 10.4496 15.1069 10.3188C14.4904 10.1694 14.2289 10.1133 13.8553 9.98257L13.5377 9.88917V9.81444C13.5377 9.44083 14.0234 8.86173 14.8453 8.28262L14.9201 8.2079ZM21.7385 9.5716C21.7572 9.5716 21.7946 9.62764 21.8506 9.77708C22.0374 10.2067 22.6539 11.3463 22.8033 11.5704C22.8407 11.6452 22.9341 11.6452 22.1308 11.5144C20.2067 11.1968 19.5903 11.1034 19.5903 11.0847C19.5903 11.0847 19.6463 11.0474 19.721 10.9913C20.3188 10.6551 20.9166 10.2441 21.4583 9.79576C21.5891 9.68368 21.7012 9.59028 21.7385 9.5716Z" fill="url(#paint1_linear_2102_3340)"/>
<path d="M12.5849 9.10449C12.5849 9.10449 12.4541 9.30998 12.5849 9.60887C12.6596 9.79568 12.8838 10.0198 13.1266 10.244C13.1266 10.244 15.6672 12.7099 15.9661 13.0648C17.3671 14.69 17.9836 16.2779 18.0396 18.4635C18.077 19.8833 17.8155 21.1162 17.143 22.5546C15.9661 25.1326 13.4629 27.9907 9.61462 31.1478L10.175 30.961C10.53 30.6807 11.0344 30.4005 12.1926 29.7654C14.8826 28.2896 17.8902 26.9446 21.589 25.5622C26.913 23.5634 35.6743 21.2096 40.662 20.4437L41.1851 20.369L41.1103 20.2382C40.662 19.5283 40.3444 19.0987 39.9708 18.6317C38.8873 17.268 37.561 16.1845 35.9358 15.2691C33.7128 14.0175 30.8173 13.0461 27.1558 12.3176C26.4646 12.1868 24.9515 11.9253 23.7186 11.7385C21.1033 11.3275 19.422 11.0473 17.5726 10.7297C16.9001 10.6176 15.91 10.4495 15.2562 10.3001C14.92 10.2253 14.2661 10.0759 13.7431 9.88908C13.2947 9.75832 12.7156 9.59019 12.5849 9.10449ZM14.0606 10.5429C14.0606 10.5429 14.154 10.5803 14.2848 10.6176C14.509 10.6924 14.7892 10.7858 15.1068 10.8605C15.3496 10.9352 15.6111 10.9912 15.854 11.066C16.1902 11.1594 16.4891 11.2341 16.4891 11.2341C16.5265 11.2715 17.1056 13.1209 17.2924 13.812C17.3671 14.0736 17.4232 14.3164 17.4232 14.3164C17.4232 14.3164 17.3484 14.223 17.2737 14.0922C16.6012 12.9154 15.5551 11.7385 14.3409 10.7671C14.1727 10.6363 14.0606 10.5429 14.0606 10.5429ZM16.8628 11.3088C16.9001 11.3088 17.0122 11.3275 17.1616 11.3649C18.133 11.589 19.8704 11.9066 20.9725 12.0934C21.1593 12.1308 21.3088 12.1495 21.3088 12.1681C21.3088 12.1868 21.234 12.2242 21.1593 12.2615C20.9725 12.3549 20.2066 12.8033 19.9638 12.9714C19.3286 13.4011 18.7682 13.8494 18.3572 14.2604L18.0583 14.5593C18.0583 14.5593 18.021 14.4659 18.0023 14.3351C17.7968 13.5505 17.3671 12.3736 16.9748 11.5517C16.9001 11.4396 16.8441 11.3088 16.8628 11.3088C16.8441 11.3088 16.8441 11.3088 16.8628 11.3088ZM21.7758 12.2429C21.8131 12.2615 21.8692 12.4483 21.9813 12.878C22.1868 13.7 22.2802 14.634 22.2615 15.4933C22.2428 15.7362 22.2428 15.9603 22.2241 15.979L22.2054 16.035L21.9066 15.9416C21.2901 15.7548 20.3 15.4559 19.4594 15.2131C18.9737 15.0823 18.5814 14.9702 18.5814 14.9516C18.5814 14.9142 19.2912 14.2043 19.5901 13.9428C20.1692 13.4384 21.7384 12.2242 21.7758 12.2429ZM22.1681 12.2989C22.1868 12.2802 24.5219 12.6912 25.5867 12.8967C26.3712 13.0461 27.5295 13.289 27.6042 13.3263C27.6415 13.345 27.5108 13.4011 27.1372 13.5692C25.6427 14.2417 24.5219 14.8582 23.401 15.5867C23.1021 15.7735 22.8593 15.9416 22.8593 15.9416C22.8593 15.9416 22.8406 15.7735 22.8406 15.5867C22.8406 14.5032 22.6164 13.4197 22.2241 12.4857C22.2054 12.3923 22.1681 12.3176 22.1681 12.2989ZM28.2206 13.4945C28.2393 13.5131 28.1646 13.9802 28.0899 14.2417C27.8844 15.0823 27.324 16.3526 26.6515 17.5295C26.5394 17.735 26.4273 17.9031 26.4086 17.9218C26.3899 17.9218 26.2405 17.8471 26.0724 17.735C25.4185 17.3427 24.6526 16.9878 23.8493 16.6515C23.6252 16.5581 23.4197 16.4834 23.4197 16.4647C23.3823 16.4273 25.213 15.2131 26.1844 14.634C26.9503 14.167 28.202 13.4758 28.2206 13.4945ZM28.6503 13.5692C28.7063 13.5692 29.7338 13.8494 30.2755 14.0175C31.6205 14.4098 33.1524 14.9702 34.1424 15.4373L34.5534 15.6241L34.2545 15.6988C31.8073 16.2592 29.7151 16.913 27.6976 17.735C27.5295 17.8097 27.38 17.8658 27.38 17.8658C27.3613 17.8658 27.4174 17.735 27.4921 17.5669C28.1086 16.2779 28.5008 14.9329 28.5943 13.7747C28.6316 13.6626 28.6503 13.5692 28.6503 13.5692ZM18.3385 15.9416C18.3572 15.923 19.1418 16.1098 19.5715 16.2405C20.2253 16.4273 21.589 16.8757 21.589 16.913C21.589 16.913 21.4395 17.0438 21.2527 17.2119C20.5055 17.8284 19.7956 18.4822 18.9363 19.3229C18.6748 19.5657 18.4693 19.7712 18.4506 19.7712C18.4319 19.7712 18.4319 19.7338 18.4319 19.6965C18.5627 18.7438 18.5253 17.5108 18.3572 16.2592C18.3572 16.0724 18.3385 15.9416 18.3385 15.9416ZM34.9644 15.9603C34.9831 15.979 34.5908 16.5581 34.3666 16.8944C34.0303 17.3801 33.526 18.0339 32.3864 19.4536C31.7887 20.2008 31.1161 21.0602 30.892 21.3404C30.6678 21.6206 30.481 21.8634 30.4623 21.8634C30.4623 21.8634 30.3876 21.77 30.2942 21.6393C29.6591 20.6865 28.8931 19.8459 27.9965 19.0987C27.8283 18.9492 27.6415 18.7998 27.5668 18.7624C27.5108 18.7251 27.4547 18.669 27.4547 18.669C27.4547 18.6503 28.4261 18.2394 29.1547 17.9405C30.4436 17.4174 32.1996 16.7823 33.5073 16.39C34.2172 16.1471 34.9644 15.9416 34.9644 15.9603ZM35.4127 16.0724C35.4314 16.0724 35.5809 16.1284 35.7303 16.2405C37.1127 17.0251 38.4764 18.0526 39.5412 19.0987C39.8401 19.3976 40.5873 20.1635 40.5686 20.1822C40.5686 20.1822 40.3071 20.2008 40.0082 20.2195C37.6171 20.4063 34.5534 20.9107 31.6019 21.6206C31.3964 21.6579 31.2282 21.714 31.2096 21.714C31.1909 21.714 31.415 21.4898 31.6953 21.2283C33.4326 19.5657 34.2172 18.5009 35.1512 16.6328C35.282 16.3153 35.394 16.0911 35.4127 16.0724C35.394 16.0724 35.394 16.0724 35.4127 16.0724ZM22.7285 17.3614C22.8032 17.3801 23.5505 17.735 24.1109 17.9965C24.6153 18.2581 25.3998 18.669 25.4372 18.6877C25.4372 18.6877 25.1757 18.8372 24.8394 19.0053C23.7746 19.547 22.8593 20.0514 21.8879 20.6305C21.6077 20.7986 21.3835 20.9294 21.3835 20.9294C21.3648 20.9294 21.3648 20.9107 21.5143 20.6305C22.0186 19.6965 22.4296 18.5756 22.6725 17.4921C22.6911 17.4174 22.7098 17.3614 22.7285 17.3614ZM22 17.5108C22.0186 17.5295 21.8318 18.2207 21.7011 18.613C21.4769 19.3415 21.0659 20.2382 20.6923 20.9294C20.5989 21.0975 20.4681 21.3217 20.3934 21.4525L20.244 21.6766L19.9264 21.3777C19.5528 21.0228 19.2539 20.7986 18.8616 20.5931C18.7121 20.5184 18.5814 20.4437 18.5814 20.425C18.5814 20.3877 19.5528 19.491 20.3 18.8558C20.8417 18.3888 21.9813 17.4921 22 17.5108ZM26.5207 19.3602L26.8009 19.547C27.436 19.958 28.1833 20.5184 28.7624 21.0041C29.08 21.2657 29.7151 21.8261 29.8459 21.9755L29.9206 22.0502L29.4536 22.181C26.8383 22.9096 24.8394 23.5447 22.4857 24.404C22.2241 24.4974 22 24.5721 21.9813 24.5721C21.9439 24.5721 21.9252 24.6095 22.5043 24.0678C23.9988 22.6854 25.3438 21.1536 26.3339 19.6778L26.5207 19.3602ZM25.3251 19.6591C25.3438 19.6778 24.5592 20.7613 24.0922 21.3964C23.5318 22.1436 22.5417 23.3766 21.8692 24.1798C21.589 24.5161 21.3461 24.7963 21.3274 24.7963C21.3088 24.7963 21.3088 24.7216 21.3088 24.5908C21.3088 23.8996 21.1406 23.1711 20.8231 22.5359C20.6923 22.2744 20.6736 22.2184 20.6923 22.181C20.8044 22.0876 22.4483 21.1349 23.5131 20.5745C24.2043 20.2008 25.3064 19.6404 25.3251 19.6591ZM18.133 21.4151C18.1517 21.4151 18.2825 21.4898 18.4319 21.5645C18.7869 21.77 19.1231 21.9942 19.4033 22.2184C19.422 22.2371 19.2726 22.3491 19.0671 22.4986C18.5253 22.8909 17.7034 23.5073 17.2364 23.881C16.732 24.2732 16.7133 24.2919 16.7693 24.1985C17.143 23.6194 17.3298 23.3019 17.5353 22.8909C17.7034 22.5173 17.8902 22.0876 18.021 21.6953C18.0583 21.5459 18.1144 21.4151 18.133 21.4151ZM20.0572 22.9282C20.0945 22.9282 20.1132 22.9656 20.2813 23.2084C20.5989 23.6941 20.8604 24.348 20.9165 24.871L20.9352 24.9831L20.1506 25.282C18.7495 25.8238 17.4605 26.3655 16.6012 26.7578C16.3584 26.8699 15.9287 27.0754 15.6485 27.2061C15.3683 27.3556 15.1441 27.449 15.1441 27.449C15.1441 27.449 15.3123 27.3182 15.5364 27.1501C17.2364 25.9172 18.7121 24.5535 19.8143 23.2084C19.9264 23.059 20.0385 22.9282 20.0572 22.9282ZM19.1792 23.1337C19.1978 23.1524 18.544 23.8996 18.1144 24.348C17.0122 25.4688 15.9287 26.3468 14.5837 27.2061C14.4156 27.3182 14.2661 27.4116 14.2474 27.4303C14.2101 27.449 14.2661 27.3929 14.8452 26.7578C15.2188 26.3468 15.4991 26.0106 15.8353 25.5996C16.0595 25.3194 16.0968 25.282 16.3957 25.0578C17.2177 24.4227 19.1418 23.115 19.1792 23.1337Z" fill="url(#paint2_radial_2102_3340)"/>
<defs>
<linearGradient id="paint0_linear_2102_3340" x1="12.4714" y1="39.0673" x2="15.1939" y2="37.4586" gradientUnits="userSpaceOnUse">
<stop stop-color="#909CA9"/>
<stop offset="1" stop-color="#EDEDEE"/>
</linearGradient>
<linearGradient id="paint1_linear_2102_3340" x1="12.5324" y1="8.75655" x2="14.723" y2="8.75655" gradientUnits="userSpaceOnUse">
<stop stop-color="#939FAB"/>
<stop offset="1" stop-color="#DCDEE1"/>
</linearGradient>
<radialGradient id="paint2_radial_2102_3340" cx="0" cy="0" r="1" gradientUnits="userSpaceOnUse" gradientTransform="translate(23.5762 18.7898) rotate(-171.457) scale(2.82433 5.65005)">
<stop stop-color="#EE352C"/>
<stop offset="1" stop-color="#A91D22"/>
</radialGradient>
</defs>
</svg>
