<svg width="68" height="70" viewBox="0 0 98 101" fill="none" xmlns="http://www.w3.org/2000/svg">
<path d="M10.5069 59.924C15.8796 59.924 20.235 55.5685 20.235 50.1958C20.235 44.8231 15.8796 40.4677 10.5069 40.4677C5.13423 40.4677 0.778809 44.8231 0.778809 50.1958C0.778809 55.5685 5.13423 59.924 10.5069 59.924Z" fill="#FF6309"/>
<path d="M80.2634 100.188C85.6364 100.188 89.9921 95.8325 89.9921 90.4594C89.9921 85.0863 85.6364 80.7306 80.2634 80.7306C74.8904 80.7306 70.5347 85.0863 70.5347 90.4594C70.5347 95.8325 74.8904 100.188 80.2634 100.188Z" fill="#FFB515"/>
<path d="M80.2552 19.6445C85.6278 19.6445 89.9832 15.289 89.9832 9.91635C89.9832 4.54366 85.6278 0.188232 80.2552 0.188232C74.8825 0.188232 70.5271 4.54366 70.5271 9.91635C70.5271 15.289 74.8825 19.6445 80.2552 19.6445Z" fill="#C90016"/>
<path d="M57.0097 26.1237C69.1233 26.1237 79.1734 35.1183 80.8379 46.7794H97.5044C96.7464 37.6164 92.9488 29.0758 86.5969 22.3407C82.529 24.4121 77.5268 24.4519 73.278 21.9995C69.0259 19.5438 66.5589 15.1896 66.3223 10.626C63.2687 9.91492 60.1437 9.55652 57.0084 9.55787C50.9267 9.55787 45.0499 10.8851 39.7051 13.4025L48.0509 27.8552C50.8986 26.7091 53.9401 26.1212 57.0097 26.1237Z" fill="#FF6309"/>
<path d="M32.9391 50.1959C32.9391 42.5266 36.5438 35.6849 42.1471 31.2737L33.8045 16.823C31.8283 18.2039 29.9771 19.7556 28.2722 21.4601C23.4442 26.2881 19.982 32.1173 18.0769 38.4792C21.9155 40.9654 24.4574 45.2818 24.4574 50.1959C24.4574 55.1087 21.9155 59.4257 18.0769 61.9113C19.982 68.2732 23.4442 74.1018 28.2722 78.931C29.9758 80.6347 31.8255 82.1859 33.7999 83.5668L42.1438 69.1141C36.5419 64.7036 32.9391 57.8626 32.9391 50.1959Z" fill="#FFB515"/>
<path d="M80.839 53.6012C79.1791 65.2661 69.1269 74.2666 57.01 74.2666C53.8439 74.2666 50.8183 73.6504 48.0478 72.5338L39.7026 86.9871C45.0461 89.5057 50.9263 90.8336 57.0093 90.8336C60.1873 90.8336 63.3103 90.4672 66.3299 89.7642C66.5625 85.1947 69.0295 80.8326 73.2849 78.3756C77.5351 75.9218 82.5393 75.9603 86.6072 78.0363C92.9532 71.3 96.7481 62.7607 97.5029 53.6012H80.839Z" fill="#C90016"/>
</svg>
